<svg version="1.2" xmlns="http://www.w3.org/2000/svg" viewBox="0 0 1440 1440" width="32" height="32"><style>.a{fill:#0175e8}.b{fill:#0175e8;stroke:#0175e8;stroke-width:40}</style><path class="a" d="m720 804.9c219.7 0 377-87.9 377-87.9l29 71c0 0-170.9 111-406 111-244.2 0-406-110-406-110l29-72c0 0 148.5 87.9 377 87.9z"/><path fill-rule="evenodd" class="b" d="m1200 1200l-80-80-354.3-729.8c-14 5.8-29.5 9-45.7 9-16.2 0-31.7-3.2-45.7-9l-354.3 729.8-80 80 396.5-834.4c-22.6-21.9-36.7-52.6-36.7-86.6 0-66.5 53.7-120.2 120.2-120.2 66.5 0 120.2 53.7 120.2 120.2 0 34-14.1 64.7-36.7 86.6zm-400.4-901c0-44-35.6-79.6-79.6-79.6-44.1 0-79.7 35.6-79.7 79.6 0 44 35.6 79.6 79.7 79.6 44 0 79.6-35.6 79.6-79.6z"/></svg>